<svg xmlns="http://www.w3.org/2000/svg" width="152" height="148" fill="none" viewBox="0 0 152 148"><path fill="#000" d="M23.2439 10.0983L34.7589 14.7865L39.5862 26.2439L34.898 37.7589L23.4406 42.5862L11.9256 37.898L7.09833 26.4406L11.7865 14.9256L23.2439 10.0983Z"/><rect width="73" height="4" x="47" y="10" fill="#000"/><rect width="73" height="4" x="47" y="10" fill="#000"/><rect width="88" height="4" x="47" y="17" fill="#000"/><rect width="71" height="4" x="47" y="24" fill="#000"/><rect width="96" height="4" x="47" y="31" fill="#000"/><rect width="81" height="4" x="47" y="38" fill="#000"/><rect width="79" height="32" x="8" y="52" stroke="#000" stroke-width="2" rx="6"/><rect width="33" height="7" x="7" y="94" fill="#000"/><rect width="49" height="7" x="7" y="104" fill="#000"/><rect width="79" height="32" x="63" y="102" stroke="#000" stroke-width="2" rx="7"/></svg>